<?xml version="1.0" encoding="utf-8"?>
<?xml-stylesheet type="text/xsl" href="rss1.xsl"?>
<rss version="2.0" xmlns:atom="http://www.w3.org/2005/Atom" xmlns:content="http://purl.org/rss/1.0/modules/content/" xmlns:dc="http://purl.org/dc/elements/1.1/" xmlns:media="http://search.yahoo.com/mrss/">
<channel>
 <title>Getty</title>
 <link>http://www.gettyimg.com/</link>
 <atom:link href="http://www.gettyimg.com/" rel="self" type="application/rss+xml" />

 
                <item>
                <title><![CDATA[【HD Live Performances】UHDTV 4K - Ludmilla - Live @ The Town 2023 UHDTV H265 2160p DD2.0-ilya2129]]></title>
                <link><![CDATA[https://sharemania.us/threads/ludmilla-live-the-town-2023-uhdtv-h265-2160p-dd2-0-ilya2129.228213/]]></link>
                <description><![CDATA[<article>
<blockquote class="messageText SelectQuoteContainer ugc baseHtml">
<div style="text-align: center"><img src="https://i122.fastpic.org/big/2023/0903/f2/ce9f496df0f384cc9c966a9eba2bd3f2.png" class="bbCodeImage LbImage" alt="[​IMG]" data-url="https://i122.fastpic.org/big/2023/0903/f2/ce9f496df0f384cc9c966a9eba2bd3f2.png" style=""><br>
<br>
<a href="https://postimg.cc/f3XBdxt1" target="_blank" class="externalLink" rel="nofollow"><img src="https://i.postimg.cc/f3XBdxt1/vlcsnap-2023-09-11-12h39m20s311.png" class="bbCodeImage LbImage" alt="[​IMG]" data-url="https://i.postimg.cc/f3XBdxt1/vlcsnap-2023-09-11-12h39m20s311.png"></a> <a href="https://postimg.cc/FfjVzNw4" target="_blank" class="externalLink" rel="nofollow"><img src="https://i.postimg.cc/FfjVzNw4/vlcsnap-2023-09-11-12h39m22s917.png" class="bbCodeImage LbImage" alt="[​IMG]" data-url="https://i.postimg.cc/FfjVzNw4/vlcsnap-2023-09-11-12h39m22s917.png"></a> <a href="https://postimg.cc/S2k7zHpz" target="_blank" class="externalLink" rel="nofollow"><img src="https://i.postimg.cc/S2k7zHpz/vlcsnap-2023-09-11-12h39m25s148.png" class="bbCodeImage LbImage" alt="[​IMG]" data-url="https://i.postimg.cc/S2k7zHpz/vlcsnap-2023-09-11-12h39m25s148.png"></a> <a href="https://postimg.cc/r0jGGg8Z" target="_blank" class="externalLink" rel="nofollow"><img src="https://i.postimg.cc/r0jGGg8Z/vlcsnap-2023-09-11-12h39m27s267.png" class="bbCodeImage LbImage" alt="[​IMG]" data-url="https://i.postimg.cc/r0jGGg8Z/vlcsnap-2023-09-11-12h39m27s267.png"></a> <a href="https://postimg.cc/ykdjjq3m" target="_blank" class="externalLink" rel="nofollow"><img src="https://i.postimg.cc/ykdjjq3m/vlcsnap-2023-09-11-12h39m29s647.png" class="bbCodeImage LbImage" alt="[​IMG]" data-url="https://i.postimg.cc/ykdjjq3m/vlcsnap-2023-09-11-12h39m29s647.png"></a> <br>
<br>
Hoje<br>
Sou má<br>
Onda diferente<br>
Socadona<br>
Eu só sinto raiva<br>
Sintomas de prazer<br>
Brigas demais<br>
Maldivas<br>
Toda forma de amor<br>
Song played from tape<br>
Rainha da favela<br>
Verdinha<br>
Vem amor<br>
Fala mal de mim / 24 horas por dia / Din din din / Não encosta / Cheguei / Zuera dos amigos<br>
Favela chegou<br>
<br>
​</div><br>
<div class="bbCodeBlock bbCodeCode">
<div class="type">Code:</div>
<pre>General
ID                                       : 1 (0x1)
Complete name                            : D:\Ludmilla - Live @ The Town 2023 UHDTV H265 2160p DD2.0-ilya2129.ts
Format                                   : MPEG-TS
File size                                : 7.36 GiB
Duration                                 : 59 min 5 s
Overall bit rate mode                    : Variable
Overall bit rate                         : 17.8 Mb/s
Frame rate                               : 59.940 FPS

Video
ID                                       : 302 (0x12E)
Menu ID                                  : 1 (0x1)
Format                                   : HEVC
Format/Info                              : High Efficiency Video Coding
Format profile                           : Main 10@L5.1@Main
Codec ID                                 : 36
Duration                                 : 59 min 5 s
Bit rate                                 : 16.8 Mb/s
Maximum bit rate                         : 17.7 Mb/s
Width                                    : 3 840 pixels
Height                                   : 2 160 pixels
Display aspect ratio                     : 16:9
Frame rate                               : 59.940 (60000/1001) FPS
Color space                              : YUV
Chroma subsampling                       : 4:2:0 (Type 0)
Bit depth                                : 10 bits
Bits/(Pixel*Frame)                       : 0.034
Stream size                              : 6.92 GiB (94%)
Color range                              : Limited
Color primaries                          : BT.709
Transfer characteristics                 : BT.709
Matrix coefficients                      : BT.709

Audio
ID                                       : 303 (0x12F)
Menu ID                                  : 1 (0x1)
Format                                   : AC-3
Format/Info                              : Audio Coding 3
Commercial name                          : Dolby Digital
Codec ID                                 : 6
Duration                                 : 59 min 5 s
Bit rate mode                            : Constant
Bit rate                                 : 192 kb/s
Maximum bit rate                         : 203 kb/s
Channel(s)                               : 2 channels
Channel layout                           : L R
Sampling rate                            : 48.0 kHz
Frame rate                               : 31.250 FPS (1536 SPF)
Compression mode                         : Lossy
Delay relative to video                  : 4 ms
Stream size                              : 81.1 MiB (1%)
Language                                 : Portuguese
Service kind                             : Complete Main
</pre>
</div>
<div class="bbCodeBlock bbCodeVfcHH HiddenContent">
<div class="attribution type">Hidden Content:</div>
<blockquote>You must reply before you can see the hidden data contained here.</blockquote>
</div>
<div class="messageTextEndMarker">&nbsp;</div>
</blockquote>
</article>]]></description>
                <author><![CDATA[ilya2129]]></author>
                </item>

                
                <item>
                <title><![CDATA[【HD Live Performances】UHDTV 4K - Ne-Yo - Live @ The Town 2023 UHDTV H265 2160p DD2.0-ilya2129]]></title>
                <link><![CDATA[https://sharemania.us/threads/ne-yo-live-the-town-2023-uhdtv-h265-2160p-dd2-0-ilya2129.228212/]]></link>
                <description><![CDATA[<article>
<blockquote class="messageText SelectQuoteContainer ugc baseHtml">
<div style="text-align: center"><img src="https://i122.fastpic.org/big/2023/0903/f2/ce9f496df0f384cc9c966a9eba2bd3f2.png" class="bbCodeImage LbImage" alt="[​IMG]" data-url="https://i122.fastpic.org/big/2023/0903/f2/ce9f496df0f384cc9c966a9eba2bd3f2.png" style=""><br>
<br>
<a href="https://postimg.cc/v4tJnFJW" target="_blank" class="externalLink" rel="nofollow"><img src="https://i.postimg.cc/v4tJnFJW/vlcsnap-2023-09-11-12h35m21s653.png" class="bbCodeImage LbImage" alt="[​IMG]" data-url="https://i.postimg.cc/v4tJnFJW/vlcsnap-2023-09-11-12h35m21s653.png"></a> <a href="https://postimg.cc/5YYKnZRK" target="_blank" class="externalLink" rel="nofollow"><img src="https://i.postimg.cc/5YYKnZRK/vlcsnap-2023-09-11-12h35m25s215.png" class="bbCodeImage LbImage" alt="[​IMG]" data-url="https://i.postimg.cc/5YYKnZRK/vlcsnap-2023-09-11-12h35m25s215.png"></a> <a href="https://postimg.cc/LJ272QJh" target="_blank" class="externalLink" rel="nofollow"><img src="https://i.postimg.cc/LJ272QJh/vlcsnap-2023-09-11-12h35m27s237.png" class="bbCodeImage LbImage" alt="[​IMG]" data-url="https://i.postimg.cc/LJ272QJh/vlcsnap-2023-09-11-12h35m27s237.png"></a> <a href="https://postimg.cc/SXttLyDz" target="_blank" class="externalLink" rel="nofollow"><img src="https://i.postimg.cc/SXttLyDz/vlcsnap-2023-09-11-12h35m29s785.png" class="bbCodeImage LbImage" alt="[​IMG]" data-url="https://i.postimg.cc/SXttLyDz/vlcsnap-2023-09-11-12h35m29s785.png"></a> <a href="https://postimg.cc/G8W7NX0L" target="_blank" class="externalLink" rel="nofollow"><img src="https://i.postimg.cc/G8W7NX0L/vlcsnap-2023-09-11-12h35m31s600.png" class="bbCodeImage LbImage" alt="[​IMG]" data-url="https://i.postimg.cc/G8W7NX0L/vlcsnap-2023-09-11-12h35m31s600.png"></a> <br>
<br>
Closer<br>
Because of You<br>
Nobody<br>
Champagne Life<br>
One in a Million<br>
Miss Independent<br>
She Knows<br>
Sexy Love<br>
U 2 Luv<br>
So Sick<br>
Push Back<br>
Mad<br>
Let Me Love You<br>
Knock You Down<br>
Let's Go<br>
Play Hard<br>
Give Me Everything<br>
Time of Our Lives<br>
<br>
​</div><br>
<div class="bbCodeBlock bbCodeCode">
<div class="type">Code:</div>
<pre>General
ID                                       : 17 (0x11)
Complete name                            : D:\Ne-Yo - Live @ The Town 2023 UHDTV H265 2160p DD2.0-ilya2129.ts
Format                                   : MPEG-TS
File size                                : 7.75 GiB
Duration                                 : 1 h 2 min
Overall bit rate mode                    : Variable
Overall bit rate                         : 17.8 Mb/s
Frame rate                               : 59.940 FPS

Video
ID                                       : 4368 (0x1110)
Menu ID                                  : 442 (0x1BA)
Format                                   : HEVC
Format/Info                              : High Efficiency Video Coding
Format profile                           : Main 10@L5.1@Main
Codec ID                                 : 36
Duration                                 : 1 h 2 min
Bit rate                                 : 16.8 Mb/s
Maximum bit rate                         : 17.7 Mb/s
Width                                    : 3 840 pixels
Height                                   : 2 160 pixels
Display aspect ratio                     : 16:9
Frame rate                               : 59.940 (60000/1001) FPS
Color space                              : YUV
Chroma subsampling                       : 4:2:0 (Type 0)
Bit depth                                : 10 bits
Bits/(Pixel*Frame)                       : 0.034
Stream size                              : 7.28 GiB (94%)
Color range                              : Limited
Color primaries                          : BT.709
Transfer characteristics                 : BT.709
Matrix coefficients                      : BT.709

Audio
ID                                       : 4369 (0x1111)
Menu ID                                  : 442 (0x1BA)
Format                                   : AC-3
Format/Info                              : Audio Coding 3
Commercial name                          : Dolby Digital
Codec ID                                 : 6
Duration                                 : 1 h 2 min
Bit rate mode                            : Constant
Bit rate                                 : 192 kb/s
Maximum bit rate                         : 203 kb/s
Channel(s)                               : 2 channels
Channel layout                           : L R
Sampling rate                            : 48.0 kHz
Frame rate                               : 31.250 FPS (1536 SPF)
Compression mode                         : Lossy
Delay relative to video                  : 9 ms
Stream size                              : 85.4 MiB (1%)
Language                                 : Portuguese
Service kind                             : Complete Main

</pre>
</div>
<div class="bbCodeBlock bbCodeVfcHH HiddenContent">
<div class="attribution type">Hidden Content:</div>
<blockquote>You must reply before you can see the hidden data contained here.</blockquote>
</div>
<div class="messageTextEndMarker">&nbsp;</div>
</blockquote>
</article>]]></description>
                <author><![CDATA[ilya2129]]></author>
                </item>

                
                <item>
                <title><![CDATA[【HD Live Performances】HDTV - Wet Leg - Live @ The Town 2023 HDTV H264 1080i DD5.1-ilya2129]]></title>
                <link><![CDATA[https://sharemania.us/threads/wet-leg-live-the-town-2023-hdtv-h264-1080i-dd5-1-ilya2129.228218/]]></link>
                <description><![CDATA[<article>
<blockquote class="messageText SelectQuoteContainer ugc baseHtml">
<div style="text-align: center"><img src="https://i122.fastpic.org/big/2023/0903/f2/ce9f496df0f384cc9c966a9eba2bd3f2.png" class="bbCodeImage LbImage" alt="[​IMG]" data-url="https://i122.fastpic.org/big/2023/0903/f2/ce9f496df0f384cc9c966a9eba2bd3f2.png" style=""><br>
<br>
<a href="https://postimg.cc/MMswk267" target="_blank" class="externalLink" rel="nofollow"><img src="https://i.postimg.cc/MMswk267/vlcsnap-2023-09-11-12h54m05s892.png" class="bbCodeImage LbImage" alt="[​IMG]" data-url="https://i.postimg.cc/MMswk267/vlcsnap-2023-09-11-12h54m05s892.png"></a> <a href="https://postimg.cc/jDCZcpmV" target="_blank" class="externalLink" rel="nofollow"><img src="https://i.postimg.cc/jDCZcpmV/vlcsnap-2023-09-11-12h50m46s609.png" class="bbCodeImage LbImage" alt="[​IMG]" data-url="https://i.postimg.cc/jDCZcpmV/vlcsnap-2023-09-11-12h50m46s609.png"></a> <a href="https://postimg.cc/0K8CwFDB" target="_blank" class="externalLink" rel="nofollow"><img src="https://i.postimg.cc/0K8CwFDB/vlcsnap-2023-09-11-12h50m49s089.png" class="bbCodeImage LbImage" alt="[​IMG]" data-url="https://i.postimg.cc/0K8CwFDB/vlcsnap-2023-09-11-12h50m49s089.png"></a> <a href="https://postimg.cc/qg0wShSx" target="_blank" class="externalLink" rel="nofollow"><img src="https://i.postimg.cc/qg0wShSx/vlcsnap-2023-09-11-12h50m51s069.png" class="bbCodeImage LbImage" alt="[​IMG]" data-url="https://i.postimg.cc/qg0wShSx/vlcsnap-2023-09-11-12h50m51s069.png"></a> <a href="https://postimg.cc/MXD5SZ82" target="_blank" class="externalLink" rel="nofollow"><img src="https://i.postimg.cc/MXD5SZ82/vlcsnap-2023-09-11-12h50m53s343.png" class="bbCodeImage LbImage" alt="[​IMG]" data-url="https://i.postimg.cc/MXD5SZ82/vlcsnap-2023-09-11-12h50m53s343.png"></a> <br>
<br>
​</div><br>
<div class="bbCodeBlock bbCodeCode">
<div class="type">Code:</div>
<pre>General
ID                                       : 1 (0x1)
Complete name                            : D:\Wet Leg - Live @ The Town 2023 HDTV H264 1080i DD5.1-ilya2129.ts
Format                                   : MPEG-TS
File size                                : 5.06 GiB
Duration                                 : 50 min 24 s
Overall bit rate mode                    : Variable
Overall bit rate                         : 14.4 Mb/s
Frame rate                               : 29.970 FPS

Video
ID                                       : 302 (0x12E)
Menu ID                                  : 1 (0x1)
Format                                   : AVC
Format/Info                              : Advanced Video Codec
Format profile                           : High@L4
Format settings                          : CABAC / 4 Ref Frames
Format settings, CABAC                   : Yes
Format settings, Reference frames        : 4 frames
Format settings, GOP                     : M=4, N=32
Codec ID                                 : 27
Duration                                 : 50 min 24 s
Bit rate mode                            : Variable
Bit rate                                 : 13.1 Mb/s
Maximum bit rate                         : 18.1 Mb/s
Width                                    : 1 920 pixels
Height                                   : 1 080 pixels
Display aspect ratio                     : 16:9
Frame rate                               : 29.970 (30000/1001) FPS
Standard                                 : Component
Color space                              : YUV
Chroma subsampling                       : 4:2:0
Bit depth                                : 8 bits
Scan type                                : MBAFF
Scan type, store method                  : Interleaved fields
Scan order                               : Top Field First
Bits/(Pixel*Frame)                       : 0.210
Stream size                              : 4.60 GiB (91%)
Color range                              : Limited
Color primaries                          : BT.709
Transfer characteristics                 : BT.709
Matrix coefficients                      : BT.709

Audio #1
ID                                       : 303 (0x12F)
Menu ID                                  : 1 (0x1)
Format                                   : AC-3
Format/Info                              : Audio Coding 3
Commercial name                          : Dolby Digital
Codec ID                                 : 129
Duration                                 : 50 min 24 s
Bit rate mode                            : Constant
Bit rate                                 : 384 kb/s
Maximum bit rate                         : 395 kb/s
Channel(s)                               : 6 channels
Channel layout                           : L R C LFE Ls Rs
Sampling rate                            : 48.0 kHz
Frame rate                               : 31.250 FPS (1536 SPF)
Compression mode                         : Lossy
Delay relative to video                  : 8 ms
Stream size                              : 138 MiB (3%)
Language                                 : Portuguese
Service kind                             : Complete Main

Audio #2
ID                                       : 304 (0x130)
Menu ID                                  : 1 (0x1)
Format                                   : MPEG Audio
Format version                           : Version 1
Format profile                           : Layer 2
Codec ID                                 : 4
Duration                                 : 50 min 24 s
Bit rate mode                            : Constant
Bit rate                                 : 192 kb/s
Maximum bit rate                         : 207 kb/s
Channel(s)                               : 2 channels
Sampling rate                            : 48.0 kHz
Frame rate                               : 41.667 FPS (1152 SPF)
Compression mode                         : Lossy
Delay relative to video                  : 11 ms
Stream size                              : 69.2 MiB (1%)
Language                                 : English
</pre>
</div>
<div class="bbCodeBlock bbCodeVfcHH HiddenContent">
<div class="attribution type">Hidden Content:</div>
<blockquote>You must reply before you can see the hidden data contained here.</blockquote>
</div>
<div class="messageTextEndMarker">&nbsp;</div>
</blockquote>
</article>]]></description>
                <author><![CDATA[ilya2129]]></author>
                </item>

                
                <item>
                <title><![CDATA[【Requests】[REQ AUD] - lil Yachty - lil boat 2 (Explicit)(Qobuz)(24 bit/44.1 khz)]]></title>
                <link><![CDATA[https://sharemania.us/threads/lil-yachty-lil-boat-2-explicit-qobuz-24-bit-44-1-khz.228211/]]></link>
                <description><![CDATA[<article>
<blockquote class="messageText SelectQuoteContainer ugc baseHtml">
Can somebody share this please?
<div class="messageTextEndMarker">&nbsp;</div>
</blockquote>
</article>]]></description>
                <author><![CDATA[yatharth444444]]></author>
                </item>

                
                <item>
                <title><![CDATA[【HD Live Performances】HDTV - Foo Fighters - Live @ The Town 2023 HDTV H264 1080i DD5.1-ilya2129]]></title>
                <link><![CDATA[https://sharemania.us/threads/foo-fighters-live-the-town-2023-hdtv-h264-1080i-dd5-1-ilya2129.228217/]]></link>
                <description><![CDATA[<article>
<blockquote class="messageText SelectQuoteContainer ugc baseHtml">
<div style="text-align: center"><img src="https://i122.fastpic.org/big/2023/0903/f2/ce9f496df0f384cc9c966a9eba2bd3f2.png" class="bbCodeImage LbImage" alt="[​IMG]" data-url="https://i122.fastpic.org/big/2023/0903/f2/ce9f496df0f384cc9c966a9eba2bd3f2.png" style=""><br>
<br>
<a href="https://postimg.cc/MMswk267" target="_blank" class="externalLink" rel="nofollow"><img src="https://i.postimg.cc/MMswk267/vlcsnap-2023-09-11-12h54m05s892.png" class="bbCodeImage LbImage" alt="[​IMG]" data-url="https://i.postimg.cc/MMswk267/vlcsnap-2023-09-11-12h54m05s892.png"></a> <a href="https://postimg.cc/kRBmq1Gk" target="_blank" class="externalLink" rel="nofollow"><img src="https://i.postimg.cc/kRBmq1Gk/vlcsnap-2023-09-11-12h54m08s233.png" class="bbCodeImage LbImage" alt="[​IMG]" data-url="https://i.postimg.cc/kRBmq1Gk/vlcsnap-2023-09-11-12h54m08s233.png"></a> <a href="https://postimg.cc/w3vHXv20" target="_blank" class="externalLink" rel="nofollow"><img src="https://i.postimg.cc/w3vHXv20/vlcsnap-2023-09-11-12h54m10s465.png" class="bbCodeImage LbImage" alt="[​IMG]" data-url="https://i.postimg.cc/w3vHXv20/vlcsnap-2023-09-11-12h54m10s465.png"></a> <a href="https://postimg.cc/RNJBYDjt" target="_blank" class="externalLink" rel="nofollow"><img src="https://i.postimg.cc/RNJBYDjt/vlcsnap-2023-09-11-12h54m13s301.png" class="bbCodeImage LbImage" alt="[​IMG]" data-url="https://i.postimg.cc/RNJBYDjt/vlcsnap-2023-09-11-12h54m13s301.png"></a> <a href="https://postimg.cc/RqDmXBb9" target="_blank" class="externalLink" rel="nofollow"><img src="https://i.postimg.cc/RqDmXBb9/vlcsnap-2023-09-11-12h54m15s350.png" class="bbCodeImage LbImage" alt="[​IMG]" data-url="https://i.postimg.cc/RqDmXBb9/vlcsnap-2023-09-11-12h54m15s350.png"></a> <br>
<br>
​</div><br>
<div class="bbCodeBlock bbCodeCode">
<div class="type">Code:</div>
<pre>General
ID                                       : 1 (0x1)
Complete name                            : D:\Foo Fighters - Live @ The Town 2023 HDTV H264 1080i DD5.1-ilya2129.ts
Format                                   : MPEG-TS
File size                                : 10.1 GiB
Duration                                 : 2 h 21 min
Overall bit rate mode                    : Variable
Overall bit rate                         : 10.2 Mb/s
Frame rate                               : 29.970 FPS

Video
ID                                       : 302 (0x12E)
Menu ID                                  : 1 (0x1)
Format                                   : AVC
Format/Info                              : Advanced Video Codec
Format profile                           : High@L4
Format settings                          : CABAC / 4 Ref Frames
Format settings, CABAC                   : Yes
Format settings, Reference frames        : 4 frames
Format settings, GOP                     : M=4, N=32
Codec ID                                 : 27
Duration                                 : 2 h 21 min
Bit rate mode                            : Variable
Bit rate                                 : 9 158 kb/s
Maximum bit rate                         : 18.1 Mb/s
Width                                    : 1 920 pixels
Height                                   : 1 080 pixels
Display aspect ratio                     : 16:9
Frame rate                               : 29.970 (30000/1001) FPS
Standard                                 : Component
Color space                              : YUV
Chroma subsampling                       : 4:2:0
Bit depth                                : 8 bits
Scan type                                : MBAFF
Scan type, store method                  : Interleaved fields
Scan order                               : Top Field First
Bits/(Pixel*Frame)                       : 0.147
Stream size                              : 9.06 GiB (89%)
Color range                              : Limited
Color primaries                          : BT.709
Transfer characteristics                 : BT.709
Matrix coefficients                      : BT.709

Audio #1
ID                                       : 303 (0x12F)
Menu ID                                  : 1 (0x1)
Format                                   : AC-3
Format/Info                              : Audio Coding 3
Commercial name                          : Dolby Digital
Codec ID                                 : 129
Duration                                 : 2 h 21 min
Bit rate mode                            : Constant
Bit rate                                 : 384 kb/s
Channel(s)                               : 6 channels
Channel layout                           : L R C LFE Ls Rs
Sampling rate                            : 48.0 kHz
Frame rate                               : 31.250 FPS (1536 SPF)
Compression mode                         : Lossy
Delay relative to video                  : -66 ms
Stream size                              : 389 MiB (4%)
Language                                 : Portuguese
Service kind                             : Complete Main

Audio #2
ID                                       : 304 (0x130)
Menu ID                                  : 1 (0x1)
Format                                   : MPEG Audio
Format version                           : Version 1
Format profile                           : Layer 2
Codec ID                                 : 3
Duration                                 : 2 h 21 min
Bit rate mode                            : Constant
Bit rate                                 : 192 kb/s
Channel(s)                               : 2 channels
Sampling rate                            : 48.0 kHz
Frame rate                               : 41.667 FPS (1152 SPF)
Compression mode                         : Lossy
Delay relative to video                  : -66 ms
Stream size                              : 195 MiB (2%)
Language                                 : English

</pre>
</div>
<div class="bbCodeBlock bbCodeVfcHH HiddenContent">
<div class="attribution type">Hidden Content:</div>
<blockquote>You must reply before you can see the hidden data contained here.</blockquote>
</div>
<div class="messageTextEndMarker">&nbsp;</div>
</blockquote>
</article>]]></description>
                <author><![CDATA[ilya2129]]></author>
                </item>

                
                <item>
                <title><![CDATA[【HD Live Performances】UHDTV 4K - Foo Fighters - Live @ The Town 2023 UHDTV H265 2160p DD2.0-ilya2129]]></title>
                <link><![CDATA[https://sharemania.us/threads/foo-fighters-live-the-town-2023-uhdtv-h265-2160p-dd2-0-ilya2129.228216/]]></link>
                <description><![CDATA[<article>
<blockquote class="messageText SelectQuoteContainer ugc baseHtml">
thanks
<div class="messageTextEndMarker">&nbsp;</div>
</blockquote>
</article>]]></description>
                <author><![CDATA[ilya2129]]></author>
                </item>

                
                <item>
                <title><![CDATA[【HD Live Performances】UHDTV 4K - Alok - Live @ The Town 2023 UHDTV H265 2160p DD2.0-ilya2129]]></title>
                <link><![CDATA[https://sharemania.us/threads/alok-live-the-town-2023-uhdtv-h265-2160p-dd2-0-ilya2129.228214/]]></link>
                <description><![CDATA[<article>
<blockquote class="messageText SelectQuoteContainer ugc baseHtml">
thanks
<div class="messageTextEndMarker">&nbsp;</div>
</blockquote>
</article>]]></description>
                <author><![CDATA[ilya2129]]></author>
                </item>

                
                <item>
                <title><![CDATA[【Music Videos】PACK - Mariah Carey - Withou You (1994) ***NEW LINK***]]></title>
                <link><![CDATA[https://sharemania.us/threads/mariah-carey-withou-you-1994-new-link.228219/]]></link>
                <description><![CDATA[<article>
<blockquote class="messageText SelectQuoteContainer ugc baseHtml">
<div style="text-align: center"><img src="https://i122.fastpic.org/big/2023/0903/f2/ce9f496df0f384cc9c966a9eba2bd3f2.png" class="bbCodeImage LbImage" alt="[​IMG]" data-url="https://i122.fastpic.org/big/2023/0903/f2/ce9f496df0f384cc9c966a9eba2bd3f2.png" style=""><br>
<br>
<a href="https://postimg.cc/dDdZK5Mb" target="_blank" class="externalLink" rel="nofollow"><img src="https://i.postimg.cc/dDdZK5Mb/vlcsnap-2023-09-11-12h46m42s397.png" class="bbCodeImage LbImage" alt="[​IMG]" data-url="https://i.postimg.cc/dDdZK5Mb/vlcsnap-2023-09-11-12h46m42s397.png"></a> <a href="https://postimg.cc/PL9JgwSf" target="_blank" class="externalLink" rel="nofollow"><img src="https://i.postimg.cc/PL9JgwSf/vlcsnap-2023-09-11-12h46m45s065.png" class="bbCodeImage LbImage" alt="[​IMG]" data-url="https://i.postimg.cc/PL9JgwSf/vlcsnap-2023-09-11-12h46m45s065.png"></a> <a href="https://postimg.cc/mPrrhwq2" target="_blank" class="externalLink" rel="nofollow"><img src="https://i.postimg.cc/mPrrhwq2/vlcsnap-2023-09-11-12h46m51s870.png" class="bbCodeImage LbImage" alt="[​IMG]" data-url="https://i.postimg.cc/mPrrhwq2/vlcsnap-2023-09-11-12h46m51s870.png"></a> <a href="https://postimg.cc/phjrRLSf" target="_blank" class="externalLink" rel="nofollow"><img src="https://i.postimg.cc/phjrRLSf/vlcsnap-2023-09-11-12h47m00s755.png" class="bbCodeImage LbImage" alt="[​IMG]" data-url="https://i.postimg.cc/phjrRLSf/vlcsnap-2023-09-11-12h47m00s755.png"></a> <a href="https://postimg.cc/rd0FNpMB" target="_blank" class="externalLink" rel="nofollow"><img src="https://i.postimg.cc/rd0FNpMB/vlcsnap-2023-09-11-12h47m04s088.png" class="bbCodeImage LbImage" alt="[​IMG]" data-url="https://i.postimg.cc/rd0FNpMB/vlcsnap-2023-09-11-12h47m04s088.png"></a> <br>
​</div><br>
<div class="bbCodeBlock bbCodeCode">
<div class="type">Code:</div>
<pre>General
ID                                       : 17 (0x11)
Complete name                            : D:\Foo Fighters - Live @ The Town 2023 UHDTV H265 2160p DD2.0-ilya2129.ts
Format                                   : MPEG-TS
File size                                : 17.6 GiB
Duration                                 : 2 h 21 min
Overall bit rate mode                    : Variable
Overall bit rate                         : 17.8 Mb/s
Frame rate                               : 59.940 FPS

Video
ID                                       : 4368 (0x1110)
Menu ID                                  : 442 (0x1BA)
Format                                   : HEVC
Format/Info                              : High Efficiency Video Coding
Format profile                           : Main 10@L5.1@Main
Codec ID                                 : 36
Duration                                 : 2 h 21 min
Bit rate                                 : 16.8 Mb/s
Maximum bit rate                         : 17.7 Mb/s
Width                                    : 3 840 pixels
Height                                   : 2 160 pixels
Display aspect ratio                     : 16:9
Frame rate                               : 59.940 (60000/1001) FPS
Color space                              : YUV
Chroma subsampling                       : 4:2:0 (Type 0)
Bit depth                                : 10 bits
Bits/(Pixel*Frame)                       : 0.034
Stream size                              : 16.6 GiB (94%)
Color range                              : Limited
Color primaries                          : BT.709
Transfer characteristics                 : BT.709
Matrix coefficients                      : BT.709

Audio
ID                                       : 4369 (0x1111)
Menu ID                                  : 442 (0x1BA)
Format                                   : AC-3
Format/Info                              : Audio Coding 3
Commercial name                          : Dolby Digital
Codec ID                                 : 6
Duration                                 : 2 h 21 min
Bit rate mode                            : Constant
Bit rate                                 : 192 kb/s
Maximum bit rate                         : 203 kb/s
Channel(s)                               : 2 channels
Channel layout                           : L R
Sampling rate                            : 48.0 kHz
Frame rate                               : 31.250 FPS (1536 SPF)
Compression mode                         : Lossy
Delay relative to video                  : 16 ms
Stream size                              : 194 MiB (1%)
Language                                 : Portuguese
Service kind                             : Complete Main
</pre>
</div>
<div class="bbCodeBlock bbCodeVfcHH HiddenContent">
<div class="attribution type">Hidden Content:</div>
<blockquote>You must reply before you can see the hidden data contained here.</blockquote>
</div>
<div class="messageTextEndMarker">&nbsp;</div>
</blockquote>
</article>]]></description>
                <author><![CDATA[Fan Made]]></author>
                </item>

                
                <item>
                <title><![CDATA[【HD Live Performances】UHDTV 4K - Wet Leg - Live @ The Town 2023 UHDTV H265 2160p DD2.0-ilya2129]]></title>
                <link><![CDATA[https://sharemania.us/threads/wet-leg-live-the-town-2023-uhdtv-h265-2160p-dd2-0-ilya2129.228215/]]></link>
                <description><![CDATA[<article>
<blockquote class="messageText SelectQuoteContainer ugc baseHtml">
Thanks
<div class="messageTextEndMarker">&nbsp;</div>
</blockquote>
</article>]]></description>
                <author><![CDATA[ilya2129]]></author>
                </item>

                </channel></rss>